<svg width="101" height="101" viewBox="0 0 101 101" fill="none" xmlns="http://www.w3.org/2000/svg">
<path d="M51.6492 62.5947C48.4296 62.5947 45.5969 61.459 44.0183 59.3157C42.5068 57.2632 42.4197 54.5811 43.7745 51.9563C45.5034 48.6109 49.6094 47.5125 51.9945 48.8008C53.4188 49.5704 54.5946 51.4493 53.6235 54.4139C53.5702 54.5842 53.4878 54.7408 53.3808 54.8745C53.2739 55.0082 53.1446 55.1164 53.0005 55.1928C52.8564 55.2692 52.7004 55.3122 52.5416 55.3194C52.3827 55.3267 52.2242 55.2979 52.0752 55.2348C51.9262 55.1717 51.7898 55.0756 51.6738 54.952C51.5578 54.8285 51.4646 54.6799 51.3996 54.515C51.3346 54.3501 51.2991 54.1721 51.2951 53.9914C51.2912 53.8108 51.3189 53.631 51.3766 53.4627C51.9266 51.7827 51.2527 51.4175 50.9642 51.2621C49.571 50.508 46.8774 51.333 45.8415 53.3373C44.9942 54.9782 44.9982 56.401 45.8567 57.5658C47.4713 59.7563 52.0337 60.8057 56.8742 58.7696C64.5475 55.5406 68.2394 48.5201 67.9165 43.2531C67.6312 38.584 64.5091 35.275 59.1242 33.9349C58.8136 33.8574 58.5427 33.6429 58.3712 33.3384C58.1997 33.0339 58.1417 32.6644 58.2098 32.3113C58.278 31.9582 58.4668 31.6503 58.7346 31.4553C59.0025 31.2604 59.3275 31.1944 59.6382 31.2719C66.059 32.8701 69.9491 37.1685 70.3088 43.0642C70.7572 50.3863 65.4563 58.0655 57.7063 61.3263C55.7684 62.15 53.7181 62.5793 51.6492 62.5947Z" fill="black"/>
<path d="M49.5404 71.2182C47.1971 71.2311 44.8628 70.8867 42.6001 70.1942C37.236 68.5207 33.4609 64.4348 32.5001 59.2651C31.5154 53.9618 33.552 48.5095 38.0872 44.3065C43.6312 39.1668 52.8702 36.2503 59.0736 40.9566C59.862 41.5405 60.512 42.3356 60.9665 43.2721C61.421 44.2086 61.6661 45.2577 61.6801 46.3272C61.6767 48.0296 61.3416 49.71 60.6988 51.2476C60.056 52.7852 59.1215 54.1419 57.9626 55.2202C57.8396 55.334 57.6979 55.419 57.5458 55.4702C57.3937 55.5213 57.2342 55.5377 57.0765 55.5183C56.9188 55.4989 56.7661 55.4441 56.6272 55.3571C56.4882 55.2701 56.3658 55.1527 56.2671 55.0115C56.1684 54.8704 56.0953 54.7084 56.0521 54.535C56.0088 54.3615 55.9963 54.18 56.0152 54.001C56.0341 53.822 56.084 53.649 56.1621 53.4921C56.2403 53.3352 56.345 53.1974 56.4703 53.0869C57.3298 52.2721 58.0257 51.2573 58.5112 50.111C58.9967 48.9648 59.2604 47.7135 59.2846 46.4416C59.2826 45.802 59.1406 45.1729 58.8714 44.6111C58.6023 44.0493 58.2144 43.5725 57.7428 43.2235C52.6832 39.3884 44.5464 41.837 39.5987 46.4189C35.7868 49.9551 34.0556 54.4306 34.8461 58.7009C35.6174 62.8539 38.7538 66.1675 43.2339 67.5648C53.0373 70.6231 63.1125 65.0209 63.2164 64.9636C63.5009 64.8021 63.8302 64.7756 64.1318 64.89C64.4335 65.0044 64.6828 65.2504 64.825 65.5737C64.9671 65.8971 64.9904 66.2714 64.8897 66.6143C64.7891 66.9572 64.5727 67.2406 64.2882 67.4022C59.6632 69.8395 54.6378 71.1398 49.5404 71.2182ZM69.2391 63.8634C68.9875 63.8634 68.7422 63.7734 68.5381 63.6061C68.3339 63.4389 68.1812 63.2028 68.1017 62.9315C68.0221 62.6601 68.0196 62.3672 68.0947 62.0942C68.1697 61.8211 68.3184 61.5819 68.5197 61.4102C73.469 57.179 76.667 52.3409 78.2959 46.617C78.3432 46.4451 78.42 46.2855 78.5219 46.1475C78.6238 46.0096 78.7487 45.8959 78.8895 45.8132C79.0302 45.7304 79.184 45.6802 79.3419 45.6655C79.4999 45.6507 79.6588 45.6717 79.8096 45.7271C79.9603 45.7826 80.0999 45.8715 80.2202 45.9887C80.3406 46.1059 80.4393 46.249 80.5107 46.4098C80.5821 46.5706 80.6247 46.7459 80.6361 46.9256C80.6475 47.1053 80.6275 47.2857 80.5771 47.4565C78.7923 53.731 75.3186 59.008 69.9593 63.5899C69.7518 63.7677 69.4989 63.8638 69.2391 63.8634ZM26.9042 46.3144C26.6753 46.3143 26.4511 46.2397 26.2583 46.0994C26.0654 45.959 25.912 45.7589 25.8161 45.5225C25.7201 45.2862 25.6857 45.0236 25.717 44.7658C25.7482 44.5079 25.8437 44.2656 25.9922 44.0676C32.9717 34.7593 45.5175 29.3788 52.8591 30.1947C53.0185 30.208 53.1739 30.2574 53.3163 30.34C53.4587 30.4227 53.5851 30.5368 53.6881 30.6758C53.7911 30.8147 53.8686 30.9757 53.916 31.1492C53.9635 31.3227 53.98 31.5053 53.9644 31.6861C53.9489 31.8669 53.9018 32.0424 53.8257 32.2022C53.7497 32.3621 53.6463 32.503 53.5216 32.6167C53.3969 32.7304 53.2535 32.8147 53.0998 32.8645C52.9461 32.9143 52.7851 32.9287 52.6265 32.9067C46.0274 32.1799 34.2162 37.3024 27.817 45.8365C27.7044 45.9865 27.5644 46.1069 27.4068 46.1894C27.2492 46.2719 27.0777 46.3146 26.9042 46.3144ZM33.9093 82.5671C33.7498 82.5668 33.5919 82.5303 33.4449 82.4598C27.4214 79.5788 23.054 74.6099 21.1357 68.468C19.2525 62.4215 19.8432 55.639 22.7998 49.3681C22.8731 49.2081 22.9735 49.0662 23.0954 48.9506C23.2172 48.835 23.358 48.7481 23.5096 48.6948C23.6613 48.6416 23.8207 48.6231 23.9786 48.6404C24.1366 48.6578 24.29 48.7106 24.4298 48.7958C24.5697 48.881 24.6933 48.9969 24.7935 49.1368C24.8936 49.2768 24.9684 49.4379 25.0133 49.6109C25.0583 49.7839 25.0726 49.9653 25.0554 50.1446C25.0382 50.324 24.9899 50.4976 24.9132 50.6556C22.2755 56.2414 21.7408 62.2443 23.3945 67.5548C25.0786 72.9635 28.9776 77.3673 34.3713 79.9431C34.6267 80.0651 34.8371 80.2838 34.9667 80.5621C35.0963 80.8404 35.1371 81.1611 35.0822 81.4698C35.0273 81.7785 34.8801 82.056 34.6655 82.2552C34.4509 82.4544 34.1823 82.563 33.9053 82.5625L33.9093 82.5671ZM48.0976 85.1601C45.2036 85.1815 42.3201 84.7632 39.5236 83.9163C39.3685 83.8725 39.2227 83.7938 39.0947 83.6851C38.9667 83.5763 38.8592 83.4395 38.7784 83.2828C38.6976 83.1261 38.6452 82.9526 38.6242 82.7725C38.6032 82.5925 38.6141 82.4095 38.6563 82.2342C38.6984 82.059 38.771 81.8952 38.8696 81.7523C38.9683 81.6094 39.0911 81.4904 39.2308 81.4022C39.3705 81.314 39.5243 81.2585 39.6831 81.2388C39.842 81.2192 40.0027 81.2358 40.1558 81.2878C50.4004 84.4678 63.7559 80.9934 76.7989 71.7524C77.0687 71.5612 77.3943 71.4997 77.7041 71.5814C78.0139 71.6631 78.2824 71.8813 78.4506 72.1881C78.6188 72.4948 78.6729 72.865 78.6011 73.2171C78.5292 73.5692 78.3372 73.8744 78.0673 74.0656C67.8139 81.3305 57.3104 85.1601 48.0976 85.1601ZM80.0704 41.9106H80.0408C79.8834 41.9064 79.7282 41.8669 79.5841 41.7945C79.4401 41.722 79.31 41.618 79.2014 41.4884C79.0927 41.3588 79.0075 41.2062 78.9508 41.0392C78.8941 40.8721 78.8668 40.6941 78.8706 40.5151C79.0001 34.4731 77.1122 29.3452 73.4034 25.6855C67.5358 19.8916 57.702 17.9472 45.7157 20.2132C45.5593 20.2457 45.3987 20.2424 45.2433 20.2037C45.088 20.1649 44.941 20.0914 44.8109 19.9874C44.6808 19.8835 44.5701 19.7511 44.4855 19.5981C44.4008 19.445 44.3438 19.2744 44.3177 19.096C44.2916 18.9177 44.297 18.7353 44.3335 18.5593C44.3701 18.3834 44.4371 18.2174 44.5306 18.0712C44.6241 17.925 44.7423 17.8013 44.8782 17.7075C45.0142 17.6137 45.1652 17.5516 45.3225 17.5248C58.0265 15.1207 68.5581 17.2903 74.9797 23.6303C79.2431 27.8406 81.4196 33.7027 81.2717 40.5832C81.2636 40.939 81.1334 41.277 80.9089 41.525C80.6844 41.7731 80.3835 41.9115 80.0704 41.9106ZM6.23995 50.1995C6.03334 50.1995 5.83022 50.1389 5.65029 50.0234C5.47037 49.908 5.31974 49.7416 5.21302 49.5405C5.10631 49.3394 5.04713 49.1104 5.04121 48.8756C5.0353 48.6408 5.08286 48.4083 5.17928 48.2006C12.2507 32.8977 29.4436 21.6087 39.1351 19.3446C39.2913 19.3027 39.4533 19.2969 39.6115 19.3276C39.7697 19.3582 39.9209 19.4246 40.0561 19.5229C40.1913 19.6212 40.3078 19.7493 40.3987 19.8997C40.4895 20.0501 40.5528 20.2197 40.585 20.3984C40.6171 20.5771 40.6173 20.7614 40.5856 20.9402C40.5539 21.119 40.4909 21.2888 40.4005 21.4395C40.31 21.5901 40.1938 21.7186 40.0588 21.8173C39.9238 21.916 39.7728 21.9829 39.6147 22.014C30.3932 24.17 14.0291 34.9101 7.29902 49.4699C7.19762 49.6895 7.0454 49.8736 6.85877 50.0021C6.67214 50.1307 6.45818 50.1989 6.23995 50.1995ZM4.21533 82.9541C4.02655 82.9542 3.84042 82.9037 3.67208 82.8066C3.50374 82.7095 3.35795 82.5686 3.24658 82.3953C-1.6787 74.7334 0.0797533 60.0783 3.50875 52.9442C3.66517 52.6361 3.92141 52.4097 4.22271 52.3134C4.52401 52.2171 4.84649 52.2586 5.12127 52.4289C5.39604 52.5993 5.60132 52.885 5.69326 53.2251C5.7852 53.5651 5.7565 53.9326 5.6133 54.2489C2.56317 60.5989 0.878253 74.0911 5.18248 80.7872C5.31305 80.9903 5.39162 81.2305 5.40948 81.4813C5.42734 81.732 5.38379 81.9835 5.28366 82.2079C5.18353 82.4322 5.03072 82.6207 4.84216 82.7524C4.6536 82.8841 4.43664 82.9539 4.21533 82.9541ZM83.0358 69.8263C82.7834 69.8265 82.5374 69.7361 82.3328 69.5681C82.1282 69.4001 81.9755 69.163 81.8964 68.8905C81.8173 68.6181 81.8159 68.3242 81.8923 68.0508C81.9687 67.7773 82.1191 67.5383 82.322 67.3677C88.9026 61.8327 98.041 47.9153 97.7485 34.3068C97.7409 33.9454 97.8599 33.5953 98.0793 33.3336C98.2988 33.0719 98.6007 32.92 98.9187 32.9113C99.2366 32.9026 99.5446 33.0379 99.7749 33.2873C100.005 33.5368 100.139 33.88 100.146 34.2414C100.455 48.8257 90.7418 63.6735 83.7456 69.5582C83.5404 69.7317 83.2915 69.8257 83.0358 69.8263ZM99.0002 30.6108H98.9394C98.6219 30.5927 98.3237 30.432 98.1104 30.164C97.8971 29.8959 97.7862 29.5426 97.802 29.1816C97.8453 25.1009 97.01 21.07 95.369 17.4403C95.2924 17.2839 95.2436 17.1119 95.2254 16.9341C95.2073 16.7563 95.2201 16.5762 95.2632 16.4041C95.3063 16.2319 95.3788 16.0711 95.4765 15.9308C95.5743 15.7905 95.6954 15.6734 95.833 15.5863C95.9705 15.4992 96.1218 15.4438 96.2782 15.4231C96.4346 15.4025 96.5931 15.4171 96.7445 15.4661C96.896 15.5151 97.0375 15.5975 97.1609 15.7086C97.2843 15.8197 97.3873 15.9574 97.4639 16.1138C99.3241 20.1894 100.263 24.727 100.197 29.3179C100.181 29.6666 100.048 29.9952 99.8254 30.2357C99.6028 30.4763 99.3074 30.6106 99.0002 30.6108Z" fill="url(#paint0_radial_53_1137)"/>
<path d="M28.2098 10.7939C30.5763 10.7939 32.4948 8.61314 32.4948 5.92306C32.4948 3.23298 30.5763 1.05225 28.2098 1.05225C25.8432 1.05225 23.9247 3.23298 23.9247 5.92306C23.9247 8.61314 25.8432 10.7939 28.2098 10.7939Z" fill="#FF5050"/>
<path d="M62.9393 100.409C64.2062 100.409 65.2333 99.2416 65.2333 97.8014C65.2333 96.3613 64.2062 95.1938 62.9393 95.1938C61.6724 95.1938 60.6453 96.3613 60.6453 97.8014C60.6453 99.2416 61.6724 100.409 62.9393 100.409Z" fill="#59C9BC"/>
<path d="M86.5817 50.2016C87.9718 50.2016 89.0987 48.9207 89.0987 47.3406C89.0987 45.7604 87.9718 44.4795 86.5817 44.4795C85.1916 44.4795 84.0648 45.7604 84.0648 47.3406C84.0648 48.9207 85.1916 50.2016 86.5817 50.2016Z" fill="#FF6F64"/>
<path d="M56.2612 28.1926C57.6513 28.1926 58.7782 26.9117 58.7782 25.3315C58.7782 23.7514 57.6513 22.4705 56.2612 22.4705C54.8711 22.4705 53.7442 23.7514 53.7442 25.3315C53.7442 26.9117 54.8711 28.1926 56.2612 28.1926Z" fill="#FF9545"/>
<path d="M12.2733 69.1155C13.6634 69.1155 14.7903 67.8345 14.7903 66.2544C14.7903 64.6743 13.6634 63.3933 12.2733 63.3933C10.8832 63.3933 9.75635 64.6743 9.75635 66.2544C9.75635 67.8345 10.8832 69.1155 12.2733 69.1155Z" fill="#FF577B"/>
<path d="M81.1769 18.8437C82.9427 18.8437 84.3741 17.2166 84.3741 15.2095C84.3741 13.2023 82.9427 11.5752 81.1769 11.5752C79.4111 11.5752 77.9797 13.2023 77.9797 15.2095C77.9797 17.2166 79.4111 18.8437 81.1769 18.8437Z" fill="#5F77ED"/>
<path d="M10.1944 14.8433L10.7707 16.0417C10.8164 16.1368 10.8852 16.215 10.9689 16.267L12.0232 16.923C12.1025 16.9716 12.1687 17.0438 12.2149 17.1318C12.2611 17.2197 12.2855 17.3203 12.2855 17.4227C12.2855 17.5251 12.2611 17.6257 12.2149 17.7136C12.1687 17.8016 12.1025 17.8738 12.0232 17.9224L10.9689 18.5775C10.8852 18.6295 10.8164 18.7077 10.7707 18.8028L10.1944 20.0012C10.1516 20.0914 10.0881 20.1667 10.0107 20.2191C9.93333 20.2716 9.84489 20.2993 9.75477 20.2993C9.66465 20.2993 9.5762 20.2716 9.49881 20.2191C9.42142 20.1667 9.35796 20.0914 9.31515 20.0012L8.73886 18.8028C8.69284 18.7076 8.62377 18.6294 8.53983 18.5775L7.48875 17.916C7.40945 17.8674 7.3432 17.7953 7.29702 17.7073C7.25085 17.6193 7.22647 17.5188 7.22647 17.4163C7.22647 17.3139 7.25085 17.2134 7.29702 17.1254C7.3432 17.0374 7.40945 16.9653 7.48875 16.9166L8.54303 16.2606C8.62697 16.2087 8.69604 16.1305 8.74205 16.0353L9.31835 14.8369C9.36191 14.748 9.42571 14.674 9.50306 14.6227C9.58041 14.5714 9.66847 14.5446 9.75802 14.5453C9.84758 14.5459 9.93533 14.5739 10.0121 14.6264C10.0889 14.6788 10.1518 14.7537 10.1944 14.8433ZM96.2733 72.4908L96.9511 73.8991C97.0046 74.0108 97.0854 74.1026 97.1837 74.1635L98.4218 74.9339C98.5142 74.9912 98.5913 75.0757 98.6451 75.1786C98.6988 75.2815 98.7271 75.3989 98.7271 75.5186C98.7271 75.6382 98.6988 75.7557 98.6451 75.8585C98.5913 75.9614 98.5142 76.0459 98.4218 76.1032L97.1837 76.8728C97.0853 76.934 97.0046 77.0261 96.9511 77.1381L96.2733 78.5455C96.2229 78.6505 96.1485 78.7382 96.058 78.7992C95.9675 78.8603 95.8642 78.8925 95.7589 78.8925C95.6537 78.8925 95.5504 78.8603 95.4599 78.7992C95.3694 78.7382 95.295 78.6505 95.2446 78.5455L94.5676 77.1381C94.5136 77.0262 94.4326 76.9342 94.3342 76.8728L93.0961 76.1032C93.0037 76.0459 92.9266 75.9614 92.8728 75.8585C92.8191 75.7557 92.7907 75.6382 92.7907 75.5186C92.7907 75.3989 92.8191 75.2815 92.8728 75.1786C92.9266 75.0757 93.0037 74.9912 93.0961 74.9339L94.3342 74.1635C94.4326 74.1024 94.5135 74.0107 94.5676 73.8991L95.2446 72.4908C95.2952 72.386 95.3696 72.2986 95.4601 72.2377C95.5506 72.1768 95.6538 72.1447 95.7589 72.1447C95.8641 72.1447 95.9673 72.1768 96.0578 72.2377C96.1483 72.2986 96.2227 72.386 96.2733 72.4908ZM68.1452 0.75054L68.8222 2.15791C68.8759 2.26972 68.9566 2.36176 69.0548 2.42321L70.2937 3.1973C70.3859 3.2548 70.4628 3.3394 70.5163 3.44226C70.5699 3.54511 70.5981 3.66244 70.5981 3.78197C70.5981 3.90149 70.5699 4.01882 70.5163 4.12167C70.4628 4.22453 70.3859 4.30913 70.2937 4.36663L69.0548 5.13618C68.9566 5.19762 68.8759 5.28967 68.8222 5.40148L68.1452 6.80885C68.0946 6.91386 68.0202 7.00148 67.9296 7.06252C67.8391 7.12356 67.7357 7.15577 67.6304 7.15577C67.5251 7.15577 67.4218 7.12356 67.3312 7.06252C67.2406 7.00148 67.1662 6.91386 67.1157 6.80885L66.4387 5.40148C66.3846 5.28963 66.3037 5.19761 66.2053 5.13618L64.9703 4.36208C64.8789 4.30444 64.8027 4.22003 64.7497 4.11763C64.6966 4.01522 64.6686 3.89854 64.6686 3.77969C64.6686 3.66085 64.6966 3.54417 64.7497 3.44176C64.8027 3.33935 64.8789 3.25495 64.9703 3.1973L66.2085 2.42775C66.3069 2.36632 66.3878 2.2743 66.4419 2.16245L67.1189 0.755083C67.1693 0.650732 67.2433 0.563621 67.3334 0.502796C67.4234 0.441971 67.5261 0.409648 67.6308 0.409185C67.7356 0.408721 67.8385 0.440134 67.9289 0.50016C68.0194 0.560187 68.094 0.646639 68.1452 0.75054ZM21.9681 92.1548L22.7218 93.7212C22.7815 93.8457 22.8714 93.9482 22.9808 94.0165L24.3588 94.8733C24.4615 94.9371 24.5472 95.0312 24.6069 95.1456C24.6666 95.2601 24.6981 95.3907 24.6981 95.5238C24.6981 95.6569 24.6666 95.7875 24.6069 95.902C24.5472 96.0164 24.4615 96.1105 24.3588 96.1743L22.9808 97.0311C22.8715 97.0991 22.7816 97.2012 22.7218 97.3255L21.9681 98.8918C21.9121 99.0089 21.8294 99.1066 21.7287 99.1746C21.6279 99.2427 21.5129 99.2786 21.3958 99.2786C21.2786 99.2786 21.1636 99.2427 21.0629 99.1746C20.9621 99.1066 20.8794 99.0089 20.8235 98.8918L20.0697 97.3255C20.0097 97.2012 19.9195 97.099 19.8099 97.0311L18.432 96.1743C18.3292 96.1105 18.2435 96.0164 18.1838 95.902C18.1241 95.7875 18.0926 95.6569 18.0926 95.5238C18.0926 95.3907 18.1241 95.2601 18.1838 95.1456C18.2435 95.0312 18.3292 94.9371 18.432 94.8733L19.8099 94.0165C19.9195 93.9482 20.0097 93.8458 20.0697 93.7212L20.8235 92.1548C20.8796 92.0381 20.9624 91.9407 21.0631 91.8728C21.1638 91.8049 21.2787 91.7691 21.3958 91.7691C21.5128 91.7691 21.6277 91.8049 21.7284 91.8728C21.8291 91.9407 21.9119 92.0381 21.9681 92.1548ZM86.6905 86.5127L87.8847 88.9958C87.9794 89.1929 88.122 89.355 88.2955 89.4628L90.48 90.8256C90.6429 90.9267 90.7789 91.0758 90.8737 91.2573C90.9684 91.4387 91.0184 91.6458 91.0184 91.8568C91.0184 92.0678 90.9684 92.275 90.8737 92.4564C90.7789 92.6379 90.6429 92.787 90.48 92.8881L88.2955 94.2509C88.1223 94.359 87.9797 94.521 87.8847 94.7179L86.6905 97.201C86.6004 97.3847 86.4688 97.5378 86.3092 97.6443C86.1496 97.7509 85.9679 97.8071 85.7829 97.8071C85.5978 97.8071 85.4161 97.7509 85.2566 97.6443C85.097 97.5378 84.9654 97.3847 84.8753 97.201L83.6763 94.7179C83.5816 94.5207 83.439 94.3586 83.2655 94.2509L81.081 92.8881C80.9183 92.7868 80.7825 92.6376 80.6879 92.4562C80.5934 92.2747 80.5435 92.0677 80.5435 91.8568C80.5435 91.6459 80.5934 91.4389 80.6879 91.2575C80.7825 91.0761 80.9183 90.9269 81.081 90.8256L83.2655 89.4628C83.4392 89.3553 83.5818 89.1932 83.6763 88.9958L84.8753 86.5127C84.9654 86.3289 85.097 86.1759 85.2566 86.0693C85.4161 85.9628 85.5978 85.9066 85.7829 85.9066C85.9679 85.9066 86.1496 85.9628 86.3092 86.0693C86.4688 86.1759 86.6004 86.3289 86.6905 86.5127Z" fill="#FFD07D"/>
<path d="M39.1258 79.8991C41.1295 79.8991 42.7538 78.0527 42.7538 75.7751C42.7538 73.4975 41.1295 71.6511 39.1258 71.6511C37.1221 71.6511 35.4978 73.4975 35.4978 75.7751C35.4978 78.0527 37.1221 79.8991 39.1258 79.8991Z" fill="#FE00AC"/>
<defs>
<radialGradient id="paint0_radial_53_1137" cx="0" cy="0" r="1" gradientUnits="userSpaceOnUse" gradientTransform="translate(50.2 50.2875) rotate(88.0612) scale(37.0487 53.1366)">
<stop/>
<stop offset="1" stop-color="#DD3915"/>
</radialGradient>
</defs>
</svg>
